<svg width="580" height="476" xmlns="http://www.w3.org/2000/svg">
 <!-- Created with Method Draw - http://github.com/duopixel/Method-Draw/ -->
 <g>
  <title>background</title>
  <rect fill="#fff" id="canvas_background" height="478" width="582" y="-1" x="-1"/>
 </g>
 <g>
  <title>Layer 1</title>
  <path d="m-19.500006,16.999998c0,0 2,0 3.999999,0c4,0 5,0 8,0c2,0 4.878555,0.49346 8,1c0.987087,0.160183 2.934143,1.144295 5,2c2.921564,1.210152 8.056647,2.917534 11,5c4.081697,2.887863 8.07612,7.617319 9,8.000002c3.919689,1.623589 3.746746,4.371346 8,7c1.902115,1.175571 4.310211,2.718987 7,6c2.285881,2.788326 5,6 6,7c4,3.999996 6.41362,5.625313 10,9.999996c2.285881,2.788326 4.144295,5.934147 5,8.000004c1.210152,2.921562 5.134644,15.108261 4,21c-1.018372,5.287994 -5.824257,8.448784 -13,11c-6.859474,2.438774 -10.002922,2.187225 -16,2c-16.023413,-0.500244 -20.458803,-2.306564 -20.999999,-1c-0.382683,0.923882 0.147269,1.173096 -1,2c-1.813993,1.307449 -2.07612,1.382683 -3,1c-7.839378,-3.247177 -10.129742,-19.145035 -15,-25c-2.305736,-2.771927 -4,-5 -4,-5c0,-1 0,-4 0,-10c0,-8.000004 -0.229752,-13.026756 0,-14c0.513743,-2.17625 1.646468,-5.590183 3,-6c4.880231,-1.477615 11.98344,6.025066 15,7.999996c13.924525,9.116337 37.125209,24.793888 48.999999,37.000004c4.464973,4.589554 6,8 7,9c0,0 -1.025826,0.679634 -3,1c-3.121445,0.506538 -6.107002,1.919014 -10,1c-2.17625,-0.513741 -7.567245,-4.283257 -9,-6c-9.61121,-11.516273 -27.517021,-23.531647 -31.999999,-29c-4.57176,-5.576653 -8.541196,-8.693439 -8,-10.000004c0.765367,-1.847759 5.175717,0.607033 10,3c5.223639,2.591057 8.301452,4.608799 10.999999,7.000004c13.800591,12.228806 14.378517,19.160507 13,25c-1.027485,4.352501 -5.380623,10.44352 -11,12c-2.891146,0.800804 -7.34346,2.236862 -12.999999,0c-6.705816,-2.651794 -11.96325,-8.424004 -14,-19c-0.567323,-2.945869 -1.468374,-10.922081 4,-18c6.49909,-8.41201 12.291287,-7.613056 16.999999,-5.000004c16.264519,9.025822 18.509758,13.512844 29,25.000004c5.26675,5.767265 15.45314,18.152489 14,25c-2.04454,9.634308 -15.142414,20.014877 -32,26c-17.376402,6.169327 -41.982996,7.122864 -55.999998,9c-7.990921,1.070129 -10.229753,0.973251 -10.000002,0c0.513744,-2.176254 2.43857,-5.490555 6.000002,-9c9.688143,-9.546722 22.777386,-13.492661 37.999999,-15c13.931865,-1.379524 36.27505,6.416428 40.999999,9c7.547691,4.127029 19.915588,12.128098 32,20c10.924919,7.116608 13,8 13,8c-1,1 -5.010918,2.946869 -10,4c-9.020767,1.90416 -17.076675,2.316483 -29,4c-5.048939,0.712891 -7.925797,1.497559 -13,2c-0.995132,0.098541 -1.967907,0.356842 0,0c8.406902,-1.52446 12.02483,-4.996277 32,-4c20.074799,1.001236 35.371346,7.74675 38,12c1.175568,1.902115 1.835716,5.182968 1,7c-7.704903,16.752151 -30.900665,16.870056 -51,17c-23.086311,0.149261 -41.333902,-0.935135 -61.999999,-8c-5.095635,-1.741989 -12.121279,-4.78125 -12,-14c0.162712,-12.36824 8.606421,-16.549011 14,-20c3.767039,-2.410278 10.096279,-5.070541 15.999999,-4c8.406902,1.52446 16.465321,6.322983 24,12c10.745064,8.095901 13.418861,10.256577 15,15c0.632454,1.897369 -2.73431,8.178879 -18,11c-18.786867,3.471832 -50.079206,8.06105 -56.999999,-1c-0.606994,-0.794708 -1.013017,-5.485382 16,-16c15.216904,-9.404556 35.937961,-13.498291 41.999999,-14c1.993187,-0.164963 2,1 2,1c-3,10 -7.927666,15.231735 -14,17c-7.917355,2.305542 -15.999999,3 -21.999999,3c-3,0 -7,-1 -7,0c0,2 5.191552,-0.909195 12,1c7.332923,2.056274 12.488732,7.029968 11.999999,11c-1.007549,8.184433 -10.056645,18.917526 -12.999999,21c-4.081697,2.887863 -5.708477,4.672607 -12,7c-3.866999,1.430496 3,0 15.999999,-4c13,-4 47.149849,-8.443665 67,-6c16.368851,2.015091 24.458801,9.693436 25,11c0.382683,0.923874 0.53157,3.378021 -6,12c-5.567162,7.348923 -19.617432,15.220215 -37,20c-14.749596,4.055786 -33.064564,6.199097 -38,7c-6.242889,1.013092 -7,2 -7,2c3,-1 7.337751,-6.906586 18,-14c10.43222,-6.940369 28,-12 38,-12c1,0 1.308754,3.071793 0,8c-0.811653,3.056335 -7.945641,13.938385 -31,18c-17.726999,3.123047 -36.888739,0.04483 -47.999999,-6c-5.624647,-3.059967 -8.335461,-3.78656 -8,-13c0.37988,-10.433395 12.790257,-20.990234 20,-22c6.93234,-0.970901 9.248185,-0.558044 11.999999,1c8.022846,4.542465 9.079828,11.73938 4,18c-7.587111,9.350708 -20.761855,14.491608 -34.999999,16c-5.966611,0.632111 -11.999999,-1 -11.999999,0c0,2 5.999999,0 12.999999,0c5,0 14.864836,-0.995941 25.999999,-2c14.939388,-1.347076 17.943356,-0.082458 15,2c-12.24509,8.663574 -16.810472,10.381042 -35.999999,21c-3.154739,1.745758 -2.933998,2.122345 -1,1c3.118477,-1.809723 15.865522,-7.497314 40.999999,-9c19.964352,-1.193573 41.937874,-0.570374 44,3c3.641068,6.304169 -3.457924,13.261017 -8,22c-5.378212,10.347687 -20.866932,20.544189 -28,22c-7.899418,1.612213 -17.0718,1.308746 -22,0c-3.056341,-0.811646 -6.36655,-5.022491 -6,-8c0.503775,-4.092224 1.783072,-6.893341 5,-10c27.682407,-26.733582 46.133759,-17.148773 51,-16c4.352501,1.027496 4.58844,2.404022 1,7c-2.61097,3.344086 -29.876125,15.992584 -50,18c-19.92609,1.987701 -33.878678,3.121307 -35.999999,1c-0.707107,-0.707092 -1.134832,-3.621307 2,-8c5.366916,-7.496399 26,-12 43.999999,-12c19,0 29.963943,1.085571 37,4c9.950485,4.121613 9.191628,6.231079 2,12c-7.800415,6.257263 -23.57074,13.802979 -41,17c-12.824444,2.352356 -26,-2 -26,1c0,1 2.937791,-2.15918 13,-6c10.935146,-4.174042 25.770874,-9.924255 43,-11c19.986061,-1.247894 23,2 23,4c0,3 -2.155334,5.873901 -7,12c-3.101479,3.921844 -19.441654,18.637024 -56,25c-19.802053,3.446533 -43.502443,6.074188 -42.999998,1c0.098537,-0.995148 4.715878,-1.549713 13.999999,-6c26.290406,-12.602173 48.999999,-17 76.999999,-21c14,-2 26,-2 51,-2c3,0 4.076019,0.039856 3,2c-2.805908,5.11145 -6.446487,10.601227 -14,17c-13.127495,11.120667 -32.689819,20.491455 -63,23c-19.931854,1.649597 -30.07612,-0.61731 -30.999999,-1c-1.306563,-0.541199 -0.111439,-7.251526 10.999999,-16c16.574303,-13.049622 36.717655,-20.49292 70,-23c7.977402,-0.600922 31.126305,-1.323761 37.999992,0c5.287994,1.018372 4.954056,7.106506 -3,13c-13.659164,10.120636 -36.682167,16.331573 -54.999992,20c-7.905289,1.58316 -41,4 -60.999999,4c-8,0 -8.399169,0.744232 -7,-1c2.57994,-3.216187 3.770491,-10.257172 16.999999,-16c16.019981,-6.954163 40.083763,-5.828552 60,-4c27.344055,2.510529 38.613838,9.296997 41,12c1.479836,1.676331 -0.385796,10.830566 -18,19c-20.686829,9.594543 -47.017868,8.318604 -60,9c-19.078712,1.001373 -35.464465,5.535522 -38.999999,2c-0.707107,-0.707092 -0.270381,-2.228851 4,-7c1.886339,-2.107544 6.907786,-3.496216 10.999999,-4c21.835167,-2.688019 36.996277,-0.149445 34,0c-10.037399,0.50061 -16.444813,4.559174 -37,11c-12.731292,3.989258 -17.707106,5.292908 -16.999999,6c0.707107,0.707092 8,0 24.999999,0c28,0 54,-2 79,-2c14,0 22.513741,-1.176239 21.999992,1c-0.229752,0.973236 -3.322472,6.592529 -10.999992,13c-13.733963,11.462036 -26.751854,13.993164 -51,16c-18.935261,1.567139 -33.150982,-0.434631 -35,-3c-1.169422,-1.622498 3.971489,-6.059174 6,-7c6.908859,-3.204315 9.971199,-5.499634 23,-6c14.988953,-0.575653 18,0 17,0c-1,0 -8.925262,0.687683 -15,1c-32.020153,1.646149 -58.312547,-5.446991 -75.999999,-14c-9.002675,-4.353363 -7.999999,-10 -7.999999,-13c0,-4 3.251318,-23.371552 7.999999,-32c3.476873,-6.317535 6,-10 6,-14c0,-3 -1.872058,-5.130035 -10,-13c-15.756078,-15.256012 -25.076699,-27.966888 -25.000001,-43c0.066521,-13.038239 1.647968,-16.842041 5,-32c3.727413,-16.855453 9.118122,-45.649704 13.000002,-60c4.250784,-15.714035 4.436466,-31.02388 4,-35c-1.006006,-9.16449 -3.865763,-12.604858 -9,-25c-2.420303,-5.843124 -3.499031,-12.953323 -4,-21c-0.372824,-5.988403 0.161242,-8.796265 4,-12c6.86698,-5.731018 18.999999,-6 33.999999,-6c19,0 27.022476,2.633453 30,3c4.092213,0.503777 12.228363,2.851952 15,4c1.306564,0.541199 2,2 5,3c0,0 1,0 2,0c3,0 9.156876,0.420303 15,-2c4.131714,-1.711411 7,-3 11,-5c2,-1 3,-1 4,-1c0,0 0,-1 0,-2c0,-1 -1.35067,-4.26226 -16,-11c-13.506016,-6.211891 -27.297665,-9.215313 -44,-16.000004c-13.265156,-5.388466 -17.999999,-8.999996 -18.999999,-8.999996c0,0 2.504243,0.035515 6.999999,3c3.541931,2.335537 8.562063,7.336414 22,10.999996c35.211449,9.599689 54.215401,7.881062 60,6.000004c2.126465,-0.69149 3.458801,-3.693439 4,-5.000004c1.148048,-2.771637 0.58844,-8.404007 -3,-12.999996c-3.4813,-4.458763 -10.317612,-8.617691 -14,-12c-6.947922,-6.381725 -15.975784,-10.081116 -46,-19.000002c-16.986423,-5.045927 -39.71704,-9.99111 -60.999998,-12c-1.99115,-0.187944 -2.662014,0.112743 -2,2c2.119478,6.04217 5.205715,8.23969 13.999999,13c10.293446,5.5718 29.828038,10.606304 49.999999,16.000002c16.871544,4.511211 39.501259,-1.05328 39,6c-0.070892,0.997486 -6.855415,-4.41819 -15,-7c-22.658531,-7.182688 -47.242924,-10.569464 -68.999999,-15.000002c-11.172458,-2.275122 -9.093671,-1.896595 -8,-1c2.788324,2.285879 6.002215,2.866888 10,3c15.02497,0.500277 29.074371,1.37232 54.999999,-4c9.027756,-1.870735 10.368095,-3.713169 7,-4.999999c-6.605377,-2.523682 -28.034212,-6.756531 -36,-8c-16.084035,-2.510737 -18.980668,-4.277402 -17,-4c7.209743,1.00976 16.870656,5.497522 43,7c18.968666,1.090727 27.532845,2.678784 34,0c2.613129,-1.082392 3.919014,-5.107004 3,-9c-0.513741,-2.176251 -2.878555,-3.493459 -6,-4c-3.948349,-0.640729 -14,-1 -29,-1c-1,0 1,0 17,0c19,0 34,2 34,0c0,-1 -6,1 -28,1c-25,0 -38,0 -42,0l-1,0" id="svg_2" stroke-width="31" stroke="#ffff00" fill="none"/>
  <path d="m0.499993,6.999999c0,0 4,0 8,0c5,0 13.00166,-0.099834 15.999999,0c15.024971,0.500277 32.023151,3.739295 56,6c19.020615,1.793397 40.937965,4.49829 47,4.999999c0.99659,0.082479 0.704384,2.014601 0.999992,5c0.502441,5.074203 2.406006,13.504324 0,18.000002c-2.001915,3.740623 -5.790253,5.990238 -12.999992,7c-3.961334,0.554806 -11.570755,2.190224 -27,-3c-25.432438,-8.555183 -37.651073,-21.432838 -45,-27.000002c-2.873993,-2.177189 -7.868286,-5.288587 -12,-6.999999c-2.921564,-1.210152 -4,-2 -4,-2c1,0 4,0 7,0c8,0 22.270409,-0.525309 49,5c15.202766,3.142585 28.693436,7.458802 30,7.999999c0.923882,0.382683 1.224205,0.902824 2,3c1.430496,3.866999 1.581139,6.418861 0,8.000002c-1.581139,1.581139 -5.925797,2.497555 -11,3c-3.98053,0.39415 -22,-3 -34,-7.000002c-6,-2 -4.825821,-1.537239 -1,0c7.480949,3.005892 15.452354,8.45429 24,16.000002c8.481644,7.487442 9.679634,11.025822 10,12.999996c0.506538,3.121445 -3.838089,7.465519 -9,9.000004c-4.887634,1.45295 -10,0 -10,2c0,2 4.006813,-0.164963 6,0c6.062035,0.501709 14,4 16,6c2,2 2.712982,5.651306 -1,9c-4.330048,3.90522 -7.867058,5.706543 -22,8c-8.938454,1.450508 -11,1 -11,2c0,0 1.549156,1.95517 5,3c3.828369,1.159134 7.292892,0.292892 8,1c0.707108,0.707108 -0.771721,2.3853 -9,7c-3.900574,2.187576 -10.025826,3.679634 -12,4c-3.121445,0.506538 -3.52573,2.149345 -3,3c1.175571,1.902115 3.041321,0.847229 7,2c3.036163,0.884132 7.693436,2.458801 9,3c0.923882,0.382683 0,0 -1,0c0,0 -3.211678,-0.285881 -6,2c-1.093674,0.896599 -3.292892,1.292892 -4,2c-0.707108,0.707108 0.718987,3.310211 4,6c2.788322,2.285873 13.709343,5.568451 42,10c9.928802,1.555283 17.999992,4 19.999992,6c0,0 0,0 -1,0c-1,0 -2,0 -3,0c0,0 -3.999992,2 -6.999992,2c-5,0 -9.03746,0.610916 -14,0c-8.184425,-1.007553 -10.222733,-2.723984 -14,-6c-1.068375,-0.92659 0.080254,-1.689255 3,-1c4.352501,1.027481 10.111298,2.64505 17,5c15.286903,5.225952 21.299431,9.510208 32.999992,17c10.280655,6.580887 18.190277,13.881516 20,17c2.24469,3.867996 3.765366,6.152237 3,8c-0.541199,1.306564 -4.712006,2.981628 -10,4c-2.945862,0.567322 -14.022476,2.633453 -17,3c-4.092209,0.503769 -12.636032,7.363953 -18.999992,1c-0.707108,-0.707108 -0.292892,-1.292892 -1,-2c-1.414215,-1.414215 -0.689247,-4.534927 1,-6c2.388954,-2.07193 4.999992,-3 5.999992,-4c1,-1 2.448914,-3.214539 1,-8c-1.04483,-3.450851 -2.702667,-5.541367 -5.999992,-7c-3.770638,-1.668015 -9.540497,-2.946503 -10,-1c-0.513741,2.176254 5.918304,4.112137 10,7c2.943352,2.082474 7.999992,7 19.999992,19c7,7 10.525726,14.149353 10,15c-2.351135,3.80423 -6.014984,2.75563 -8,3c-4.092209,0.503769 -5,1 -6,1c-1,0 -3,0 -5,0c-7,0 -8.418854,0.418854 -9.999992,2c-1.581139,1.581146 -3.298691,1.821075 -5,5c-0.943718,1.763351 -4.644714,1.412003 -5,5c-0.139351,1.407333 2,2 3,2c4,0 4.551956,-0.577194 2,1c-1.902115,1.175568 -4.212601,3.671219 -9,7c-5.257172,3.655426 -5.707108,4.292892 -5,5c1.414215,1.414215 3.292892,-0.707108 4,0c0.707108,0.707108 0.18734,2.206802 -2,4c-5.576653,4.571762 -12,6 -16,7c0,0 0,1 0,1c1,1 2.81266,2.206802 5,4c5.576653,4.571747 9.692551,8.186005 11,10c0.826904,1.147278 1.307449,3.186005 0,5c-0.826904,1.147278 -4.054131,1.432678 -7,2c-5.287994,1.018372 -7,2 -9,2c-7,0 -8.707108,0.292908 -8,1c0.707108,0.707092 2.2565,-0.203003 3,1c1.662506,2.690002 3.972511,4.647491 5,9c0.229752,0.973236 -0.707108,3.292908 0,4c0.707108,0.707092 3,0 5,0c1,0 0,0 -1,0c0,0 -1.173096,0.852722 -2,2c-1.307449,1.813995 -0.847755,2.234619 1,3c1.306564,0.541199 5,1 7,2c2,1 6,2 18,4c6,1 12.925789,2.497559 17.999992,3c1.990265,0.197083 4.541199,-0.306549 4,1c-0.38269,0.923889 -2,0 -3,0c-4,0 -6,0 -9,0c-2,0 -7.999992,0 -5.999992,0c0,0 2,0 3.999992,0c4,0 8.250565,-1.108368 15,1c4.268707,1.333435 6.186005,2.692535 8,4c1.147263,0.826904 3.493454,3.878571 4,7c0.480545,2.961273 0.450851,5.95517 -3,7c-0.957092,0.289795 -1.861938,1.475464 -8,3c-5.903397,1.466248 -8.525726,1.149353 -8,2c1.175568,1.9021 3.796997,2.2565 5,3c2.689987,1.662506 3.558197,2.519287 7,5c1.813995,1.307465 3.693436,2.458801 5,3c1.847763,0.765381 1,0 0,0c-1,0 -3.62291,-0.730713 -8,5c-1.919479,2.513092 -8.292892,6.292908 -9,7c-0.707108,0.707092 0.6689,2.620209 4,4c4.710876,1.951324 11.234009,3.49295 16,6c3.190994,1.678558 5,5 5,6c0,0 0.83876,2.796265 -3,6c-3.433487,2.865509 -8,6 -11,8c-3,2 -7,3 -7,5c0,1 0,1 1,1c1,0 1.823746,1.486267 4,2c1.946503,0.459503 15.232742,9.733246 21,15c3.132858,2.860962 2,3 2,3c-3,1 -4,1 -8,1c-3,0 -7,-1 -9,-1c-2,0 -3,-1 -3,-1c0,0 0.152237,-0.765381 2,0c1.306564,0.541199 4.823746,2.486267 7,3c0.973251,0.229767 -1,0 -3,1l-5,1l-5,2l-1,0" id="svg_7" stroke-width="31" stroke="#ff3f00" fill="none"/>
  <path d="m-26.500006,155c-1,0 -2.566511,-0.865509 -6.000002,2c-3.83876,3.203735 -10.022396,7.951721 -23,14c-17.029625,7.936752 -19,10 -18,10c11,0 21.981262,-0.499847 42.000002,-1c11.996256,-0.299713 17.032723,0.033829 15.999999,1c-7.762622,7.262344 -16.806054,14.28331 -24.000001,19c-9.752609,6.394272 -17.541195,9.693436 -17,11c1.913418,4.6194 10.955257,-2.183426 27.000002,-6c30.917831,-7.354431 44.679634,-9.974182 44.999999,-8c0.506541,3.121445 -5.974009,4.043533 -16,10c-16.956361,10.073822 -50.607453,24.319839 -55.000001,34c-0.826431,1.821259 0,2 2,2c2,0 9.940964,-0.393875 22.000002,-2c9.961906,-1.326813 17.464465,-4.535538 20.999999,-1c0.707107,0.707108 -0.608798,3.301453 -3,6c-12.228805,13.800598 -42.354096,26.606659 -42.000001,33c0.078205,1.412048 4.815575,2.992462 13,4c3.970032,0.488739 11.06114,1.601257 32.000001,0c13.114654,-1.00293 19,-1 19,-2c0,-1 -2.028997,-0.416107 -5,0c-7.209742,1.009766 -16.541883,6.610992 -20.000001,12c-2.226753,3.470093 0,4 1.000001,4c2,0 5.937963,-0.498291 12,-1c0.996593,-0.082489 1.150314,1.162567 -1,3c-10.340528,8.835907 -34.162278,16.513153 -31.000001,26c0.632454,1.897369 4.000002,1 10.000002,1c4,0 21.999999,0 44.999998,0c8,0 11,1 11,2c0,1 -10.636799,10.281891 -21.999999,21c-15.95432,15.048584 -25.17557,24.0979 -24,26c0.525731,0.850647 9.93824,1.505737 31.999999,-1c21.9496,-2.493011 32,-2 32,-2c-3,2 -9.808369,9.231079 -17,15c-7.800419,6.257263 -11.458803,9.693451 -12,11c-0.382683,0.923889 1,1 1,1c6,-3 13,-8 16,-9c9,-3 13.541195,-2.693451 13,-4c-0.382683,-0.923889 -3.413616,0.625305 -7,5c-2.285881,2.78833 -8.376411,7.080322 -10,11c-0.765368,1.847748 -1.031448,3.412079 1,7c1.393562,2.461304 4.096603,3.533752 10,5c3.069031,0.762268 1.541195,1.693451 1,3c-0.382683,0.923889 -1.296997,3.613831 -4,6c-1.676331,1.479828 -5.418861,3.256592 -7,8c-0.632454,1.897369 4.215122,4.360779 11,7c4.167919,1.621246 4.123886,2.141571 3,3c-6.407131,4.893738 -21,8 -27,9c0,0 -1.009733,-0.197083 -3,0c-5.074203,0.502441 -19.648512,-1.897583 -34,-7c-6.859472,-2.438782 -14.541155,-5.822906 -23,-10c-7.660858,-3.78302 -23.670357,-10.483917 -34,-12c-5.936401,-0.871277 -13.316612,3.474518 -30,-8c-8.758537,-6.023956 -10.552055,-22.007263 -10,-43c0.500175,-19.019714 4.452728,-44.134003 6,-53c4.568016,-26.175049 27.644135,-57.279633 45,-79c18.623085,-23.306244 29.854328,-34.575912 34.000002,-44c2.546667,-5.789169 5.887432,-12.473297 4,-16c-1.701307,-3.178925 -6.504244,-3.035507 -11.000002,-6c-1.180645,-0.778519 -2.756432,-3.072174 -2,-7c3.055126,-15.863998 16.583017,-33.276733 24.000001,-44c8.532852,-12.336548 14.385096,-21.372017 17,-25c0.826905,-1.14727 -0.647498,-0.027489 -5,1c-3.892996,0.919014 -6.670357,2.483932 -16.999999,4c-0.989401,0.14521 -0.740805,-1.360001 1,-4c6.628789,-10.052818 14.796262,-13.16124 17.999999,-17c1.432755,-1.716743 -0.009245,-2.407829 -9,-2c-11.034015,0.500511 -16.999999,1 -18.999999,1c-2,0 -4.458805,-1.693436 -5.000002,-3c-0.382683,-0.923882 -2.39415,-3.01947 -2,-7c0.502445,-5.074207 3.000002,-8.000004 3.000002,-10.000004l0,0l-3.000002,0l-9,4" id="svg_8" stroke-width="31" stroke="#ff3f00" fill="none"/>
 </g>
</svg>