<svg width="580" height="476" xmlns="http://www.w3.org/2000/svg">
 <!-- Created with Method Draw - http://github.com/duopixel/Method-Draw/ -->

 <g>
  <title>background</title>
  <rect x="-1" y="-1" width="582" height="478" id="canvas_background" fill="#fff"/>
 </g>
 <g>
  <title>Layer 1</title>
  <path stroke="#ffff00" fill="none" stroke-width="31" id="svg_2" d="m-23.036027,29.899835c0,0 4.710795,0 9.421589,0c9.421589,0 11.776987,0 18.843179,0c4.710795,0 11.490947,0.576124 18.843179,1.167519c2.324989,0.187013 6.911089,1.33598 11.776987,2.335037c6.881458,1.412873 18.976612,3.406271 25.909371,5.837593c9.614025,3.371631 19.022471,8.893363 21.198576,9.34015c9.232427,1.895572 8.825085,5.103633 18.843179,8.172631c4.480248,1.3725 10.152257,3.174472 16.487781,7.005112c5.384156,3.255427 11.776987,7.005112 14.132384,8.172631c9.421589,4.670075 15.106623,6.567655 23.553973,11.675187c5.384156,3.255416 9.761473,6.928219 11.776987,9.34015c2.850408,3.410976 12.094141,17.639176 9.421589,24.517893c-2.398666,6.173827 -13.718423,9.864109 -30.620165,12.842706c-16.156777,2.84731 -23.560851,2.55362 -37.686357,2.335037c-37.741497,-0.58404 -48.188603,-2.692952 -49.463344,-1.167519c-0.901363,1.078647 0.346879,1.369616 -2.355397,2.335037c-4.272667,1.526472 -4.890087,1.614305 -7.066192,1.167519c-18.464831,-3.791143 -23.859562,-22.352192 -35.33096,-29.187967c-5.43091,-3.23628 -9.421589,-5.837593 -9.421589,-5.837593c0,-1.167519 0,-4.670075 0,-11.675187c0,-9.34015 -0.541153,-15.208986 0,-16.345262c1.210085,-2.540813 3.878091,-6.52664 7.066192,-7.005112c11.494904,-1.725149 28.225763,7.034382 35.33096,9.34015c32.797801,10.643486 87.44462,28.947318 115.414469,43.198192c10.516802,5.358385 14.132384,9.34015 16.487781,10.507668c0,0 -2.416214,0.793481 -7.066192,1.167519c-7.352231,0.591395 -14.384411,2.24048 -23.553973,1.167519c-5.125933,-0.599801 -17.823857,-5.000786 -21.198576,-7.005112c-22.638218,-13.44546 -64.813515,-27.473641 -75.372714,-33.858042c-10.768311,-6.510843 -20.117896,-10.149754 -18.843179,-11.675187c1.80275,-2.157294 12.190877,0.708719 23.553973,3.502556c12.303748,3.025099 19.553237,5.38086 25.909371,8.172631c32.505873,14.277364 33.867128,22.370254 30.620165,29.187967c-2.420124,5.081625 -12.673498,12.193005 -25.909371,14.010224c-6.809783,0.934949 -17.296766,2.611576 -30.620165,0c-15.794847,-3.096014 -28.178207,-9.835177 -32.975563,-22.182855c-1.336264,-3.439358 -3.458595,-12.751733 9.421589,-21.015336c15.307939,-9.821179 28.950872,-8.88839 40.041754,-5.837593c38.309407,10.537814 43.597839,15.776493 68.306522,29.187967c12.405289,6.733384 36.398285,21.193371 32.975563,29.187967c-4.815704,11.248237 -35.666392,23.367746 -75.372714,30.355486c-40.928326,7.202808 -98.886622,8.316072 -131.902227,10.507668c-18.821815,1.249397 -24.095149,1.136288 -23.553997,0c1.210085,-2.540813 5.743801,-6.410331 14.132407,-10.507668c22.819419,-11.145974 53.64978,-15.752933 89.505075,-17.51278c32.815089,-1.610615 85.442156,7.491302 96.57129,10.507668c17.777809,4.818385 46.909127,14.159783 75.372714,23.350374c25.732527,8.308775 30.620165,9.34015 30.620165,9.34015c-2.355397,1.167519 -11.802684,3.440526 -23.553973,4.670075c-21.247474,2.223142 -40.222343,2.704534 -68.306522,4.670075c-11.89226,0.832312 -18.668385,1.748429 -30.620165,2.335037c-2.343927,0.115047 -4.635186,0.416617 0,0c19.801613,-1.779836 28.323252,-5.83325 75.372714,-4.670075c47.28413,1.168966 83.313583,9.044475 89.505098,14.010224c2.768934,2.220761 4.32385,6.051214 2.355397,8.172631c-18.148101,19.558448 -72.783332,19.69611 -120.125263,19.847818c-54.377433,0.174264 -97.357757,-1.091793 -146.034634,-9.34015c-12.002233,-2.033806 -28.550407,-5.582199 -28.264768,-16.345262c0.38327,-14.440151 20.271562,-19.321278 32.975563,-23.350374c8.872876,-2.814047 23.780751,-5.91995 37.686357,-4.670075c19.801613,1.779836 38.782371,7.382197 56.529536,14.010224c25.308909,9.452115 31.606747,11.974749 35.33096,17.51278c1.489695,2.215215 -6.440386,9.548995 -42.397152,12.842706c-44.25052,4.053426 -117.956414,9.411427 -134.257647,-1.167519c-1.429703,-0.927839 -2.386041,-6.404284 37.686357,-18.680299c35.841869,-10.98 84.648198,-15.759506 98.926688,-16.345262c4.694754,-0.192594 4.710795,1.167519 4.710795,1.167519c-7.066192,11.675187 -18.672789,17.783341 -32.975563,19.847818c-18.648505,2.691761 -37.686357,3.502556 -51.818741,3.502556c-7.066192,0 -16.487781,-1.167519 -16.487781,0c0,2.335037 12.228187,-1.061508 28.264768,1.167519c17.271964,2.400734 29.415945,8.207621 28.264768,12.842706c-2.373181,9.555475 -23.687383,22.08657 -30.620165,24.517893c-9.614002,3.371631 -13.445715,5.45536 -28.264768,8.172631c-9.108298,1.670135 7.066192,0 37.686357,-4.670075c30.620165,-4.670075 111.05663,-9.858143 157.811621,-7.005112c38.555145,2.352655 57.610192,11.317272 58.884933,12.842706c0.901387,1.078635 1.252059,3.943901 -14.132384,14.010224c-13.112874,8.580001 -46.206842,17.76988 -87.149701,23.350374c-34.741145,4.735211 -77.880176,7.237565 -89.505098,8.172631c-14.704486,1.182802 -16.487781,2.335037 -16.487781,2.335037c7.066192,-1.167519 17.283317,-8.063573 42.397152,-16.345262c24.572023,-8.103012 65.951125,-14.010224 89.505098,-14.010224c2.355397,0 3.08265,3.586372 0,9.34015c-1.911758,3.568322 -18.715139,16.273319 -73.017317,21.015336c-41.754128,3.646219 -86.887639,0.05234 -113.059072,-7.005112c-13.248262,-3.572572 -19.63332,-4.42088 -18.843179,-15.177743c0.894768,-12.181178 30.126144,-24.506486 47.107946,-25.685411c16.328415,-1.133544 21.783162,-0.651522 28.264768,1.167519c18.896999,5.303407 21.386607,13.705946 9.421589,21.015336c-17.870659,10.917129 -48.902406,16.919226 -82.438906,18.680299c-14.053737,0.738 -28.264744,-1.167519 -28.264744,0c0,2.335037 14.13236,0 30.620142,0c11.776987,0 35.012604,-1.162779 61.24033,-2.335037c35.188199,-1.572741 42.263742,-0.096274 35.33096,2.335037c-28.842052,10.11488 -39.595336,12.120058 -84.794304,24.517893c-7.430643,2.038207 -6.910712,2.477872 -2.355397,1.167519c7.345259,-2.112882 37.369627,-8.75325 96.57129,-10.507668c47.024,-1.393515 98.78037,-0.665918 103.637482,3.502556c8.576167,7.360236 -8.144776,15.482489 -18.843179,25.685411c-12.667821,12.081121 -49.149911,23.985726 -65.951125,25.685411c-18.606249,1.882285 -40.210872,1.52799 -51.818741,0c-7.198895,-0.947617 -14.995755,-5.863851 -14.132384,-9.34015c1.186602,-4.777743 4.199862,-8.048103 11.776987,-11.675187c65.203074,-31.211954 108.663335,-20.021509 120.125263,-18.680299c10.251867,1.199625 10.807599,2.806738 2.355397,8.172631c-6.149872,3.904288 -70.370133,18.671636 -117.769866,21.015336c-46.933859,2.320677 -79.797729,3.644188 -84.794304,1.167519c-1.665501,-0.825541 -2.672976,-4.227947 4.710795,-9.34015c12.641229,-8.752187 61.24033,-14.010224 103.637482,-14.010224c44.752549,0 70.577008,1.267423 87.149701,4.670075c23.437358,4.812057 21.649941,7.274902 4.710795,14.010224c-18.373065,7.305468 -55.518458,16.115237 -96.57129,19.847818c-30.206652,2.746424 -61.24033,-2.335037 -61.24033,1.167519c0,1.167519 6.919663,-2.520883 30.620165,-7.005112c25.756623,-4.87327 60.700662,-11.586759 101.282085,-12.842706c47.075112,-1.456935 54.174138,2.335037 54.174138,4.670075c0,3.502556 -5.076659,6.857888 -16.487781,14.010224c-7.305218,4.578822 -45.79281,21.759069 -131.90225,29.187967c-46.641696,4.023888 -102.465531,7.09173 -101.282061,1.167519c0.232077,-1.161856 11.107748,-1.809315 32.975539,-7.005112c61.924361,-14.713269 115.414469,-19.847818 181.365594,-24.517893c32.975563,-2.335037 61.24033,-2.335037 120.125263,-2.335037c7.066192,0 9.600647,0.046537 7.066192,2.335037c-6.609009,5.967713 -15.184022,12.377134 -32.975563,19.847818c-30.920455,12.98359 -76.997515,23.924151 -148.390031,26.85293c-46.947426,1.925939 -70.841213,-0.720721 -73.017317,-1.167519c-3.077468,-0.631861 -0.262462,-8.466297 25.909371,-18.680299c39.039085,-15.235675 86.484678,-23.925867 164.877813,-26.85293c18.78997,-0.701585 73.314827,-1.545515 89.505098,0c12.455317,1.188966 11.668756,8.296983 -7.066192,15.177743c-32.172772,11.816036 -86.401085,19.067413 -129.546853,23.350374c-18.620099,1.848369 -96.57129,4.670075 -143.679237,4.670075c-18.843179,0 -19.783359,0.868902 -16.487781,-1.167519c6.076784,-3.754962 8.881026,-11.975438 40.041754,-18.680299c37.733418,-8.119112 94.413205,-6.804941 141.323839,-4.670075c64.406126,2.931091 90.950935,10.854421 96.57129,14.010224c3.485611,1.957147 -0.908689,12.644893 -42.397152,22.182855c-48.725704,11.201805 -110.745742,9.712121 -141.323839,10.507668c-44.937942,1.169118 -83.532894,6.462823 -91.860496,2.335037c-1.665501,-0.825541 -0.636852,-2.602224 9.421589,-8.172631c4.44308,-2.460592 16.27059,-4.081902 25.909371,-4.670075c51.430501,-3.138314 87.140939,-0.174486 80.083509,0c-23.642065,0.584472 -38.734061,5.322916 -87.149701,12.842706c-29.987246,4.657536 -41.707256,6.179571 -40.041754,7.005112c1.665525,0.825541 18.843179,0 58.884933,0c65.951125,0 127.191455,-2.335037 186.076389,-2.335037c32.975563,0 53.028803,-1.373282 51.818741,1.167519c-0.541176,1.136276 -7.82576,7.696902 -25.909371,15.177743c-32.348933,13.382146 -63.011236,16.337276 -120.125263,18.680299c-44.600061,1.829665 -78.08373,-0.507439 -82.438906,-3.502556c-2.754449,-1.894299 9.354437,-7.074194 14.132384,-8.172631c16.27311,-3.741103 23.486138,-6.420921 54.174138,-7.005112c35.304956,-0.672082 42.397152,0 40.041754,0c-2.355397,0 -21.022534,0.802879 -35.33096,1.167519c-75.420176,1.921911 -137.349201,-6.359463 -179.010197,-16.345262c-21.204865,-5.082629 -18.843155,-11.675187 -18.843155,-15.177743c0,-4.670075 7.658127,-27.286721 18.843155,-37.360598c8.189434,-7.375846 14.132384,-11.675187 14.132384,-16.345262c0,-3.502556 -4.409422,-5.989418 -23.553973,-15.177743c-37.111805,-17.811677 -59.065592,-32.651867 -58.884933,-50.203304c0.156681,-15.222389 3.881624,-19.663396 11.776987,-37.360598c8.779555,-19.679053 21.476819,-53.296878 30.620189,-70.051121c10.012276,-18.346424 10.449626,-36.22096 9.421589,-40.863154c-2.369553,-10.699713 -9.105424,-14.71641 -21.198576,-29.187967c-5.700792,-6.821952 -8.241629,-15.123243 -9.421589,-24.517893c-0.878163,-6.991569 0.379784,-10.26981 9.421589,-14.010224c16.174466,-6.691073 44.752526,-7.005112 80.083485,-7.005112c44.752549,0 63.648677,3.074602 70.66192,3.502556c9.638804,0.588173 28.80267,3.329705 35.33096,4.670075c3.077491,0.631861 4.710795,2.335037 11.776987,3.502556c0,0 2.355397,0 4.710795,0c7.066192,0 21.568091,0.490708 35.33096,-2.335037c9.731842,-1.998103 16.487781,-3.502556 25.909371,-5.837593c4.710795,-1.167519 7.066192,-1.167519 9.421589,-1.167519c0,0 0,-1.167519 0,-2.335037c0,-1.167519 -3.181365,-4.976268 -37.686357,-12.842706c-31.81202,-7.252498 -64.296835,-10.759047 -103.637482,-18.680299c-31.244699,-6.291139 -42.397128,-10.507668 -44.752526,-10.507668c0,0 5.89848,0.041459 16.487758,3.502556c8.342676,2.726787 20.167077,8.565396 51.818741,12.842706c82.936955,11.207806 127.698832,9.201285 141.323839,7.005112c5.008682,-0.807327 8.146872,-4.31216 9.421589,-5.837593c2.704114,-3.235942 1.38601,-9.811839 -7.066192,-15.177743c-8.199845,-5.205686 -24.302071,-10.061314 -32.975563,-14.010224c-16.365112,-7.450777 -37.629309,-11.769896 -108.348277,-22.182855c-40.009768,-5.891218 -93.54941,-11.664808 -143.679213,-14.010224c-4.689949,-0.219435 -6.270115,0.131626 -4.710795,2.335037c4.992194,7.054346 12.261515,9.619992 32.975563,15.177743c24.245141,6.505181 70.256862,12.383053 117.769843,18.680299c39.739204,5.266922 93.041162,-1.229724 91.860496,7.005112c-0.166974,1.164588 -16.147214,-5.158319 -35.33096,-8.172631c-53.369841,-8.385925 -111.275847,-12.340042 -162.522392,-17.51278c-26.315582,-2.656245 -21.41923,-2.214316 -18.843179,-1.167519c6.567601,2.668808 14.137589,3.347148 23.553973,3.502556c35.389774,0.584075 68.481693,1.602209 129.546829,-4.670075c21.263962,-2.184124 24.420995,-4.335195 16.487781,-5.837593c-15.558271,-2.946444 -66.031703,-7.888375 -84.794304,-9.34015c-37.884281,-2.931336 -44.706996,-4.993944 -40.041754,-4.670075c16.981826,1.178914 39.737107,6.418457 101.282085,8.172631c44.678755,1.273448 64.850801,3.127526 80.083509,0c6.154959,-1.263711 9.230849,-5.96253 7.066192,-10.507668c-1.210062,-2.540813 -6.780129,-4.07868 -14.132384,-4.670075c-9.299909,-0.748064 -32.975563,-1.167519 -68.306522,-1.167519c-2.355397,0 2.355397,0 40.041754,0c44.752549,0 80.083509,2.335037 80.083509,0c0,-1.167519 -14.132384,1.167519 -65.951125,1.167519c-58.884933,0 -89.505098,0 -98.926688,0l-2.355397,0"/>
  <path stroke="#ff3f00" fill="none" stroke-width="31" id="svg_7" d="m-10.500009,13.007139c0,0 7.191484,0 14.382969,0c8.989355,0 23.375308,-0.115902 28.765937,0c27.012959,0.580762 57.573495,4.340842 100.68078,6.96524c34.196622,2.08191 73.601192,5.221945 84.49994,5.804367c1.79174,0.095749 1.266402,2.338695 1.797853,5.804367c0.903322,5.890503 4.325696,15.676805 0,20.89572c-3.599176,4.342386 -10.410123,6.95391 -23.372306,8.126113c-7.121961,0.644064 -20.802717,2.542568 -48.542519,-3.48262c-45.724248,-9.93148 -67.691769,-24.880812 -80.904198,-31.34358c-5.167063,-2.527442 -14.146153,-6.139383 -21.574453,-8.126113c-5.252588,-1.404831 -7.191484,-2.321747 -7.191484,-2.321747c1.797871,0 7.191484,0 12.585097,0c14.382969,0 40.039326,-0.609818 88.095682,5.804367c27.33262,3.648137 51.587106,8.658722 53.936132,9.286987c1.661017,0.444243 2.200972,1.04806 3.595742,3.48262c2.571855,4.489097 2.842686,7.451483 0,9.286987c-2.842686,1.835503 -10.653824,2.899339 -19.776582,3.48262c-7.15648,0.457558 -39.553163,-3.48262 -61.127616,-8.126113c-10.787226,-2.321747 -8.676202,-1.784541 -1.797871,0c13.449784,3.489457 27.781351,9.81436 43.148906,18.573973c15.248913,8.691969 17.402745,12.79958 17.978711,15.091353c0.910694,3.623596 -6.900391,8.666511 -16.18084,10.44786c-8.787329,1.686691 -17.978711,0 -17.978711,2.321747c0,2.321747 7.203728,-0.191498 10.787226,0c10.898766,0.582422 25.170195,4.643493 28.765937,6.96524c3.595742,2.321747 4.877588,6.560455 -1.797871,10.44786c-7.784872,4.533466 -14.14396,6.62457 -39.553163,9.286987c-16.070181,1.683858 -19.776582,1.160873 -19.776582,2.321747c0,0 2.78519,2.269705 8.989355,3.48262c6.882916,1.345603 13.111676,0.340008 14.382969,1.160873c1.271293,0.820865 -1.387453,2.769031 -16.18084,8.126113c-7.012722,2.539503 -18.025132,4.271584 -21.574453,4.643493c-5.611947,0.588029 -6.338808,2.495111 -5.393613,3.48262c2.113523,2.208109 5.467901,0.983527 12.585097,2.321747c5.458624,1.026363 13.831813,2.854355 16.18084,3.48262c1.661017,0.444243 0,0 -1.797871,0c0,0 -5.774187,-0.33187 -10.787226,2.321747c-1.966278,1.040839 -5.920192,1.500882 -7.191484,2.321747c-1.271293,0.820865 1.292651,3.842734 7.191484,6.96524c5.01304,2.653605 24.647626,6.464265 75.510585,11.608733c17.850702,1.805483 32.361661,4.643493 35.957403,6.96524c0,0 0,0 -1.797871,0c-1.797871,0 -3.595742,0 -5.393613,0c0,0 -7.191466,2.321747 -12.585079,2.321747c-8.989355,0 -16.248188,0.709201 -25.170195,0c-14.714532,-1.169638 -18.37915,-3.162196 -25.170195,-6.96524c-1.920792,-1.075654 0.144297,-1.961017 5.393613,-1.160873c7.825234,1.192774 18.178814,3.070568 30.563808,5.804367c27.483875,6.066666 38.293629,11.040149 59.329727,19.734846c18.483301,7.63958 32.703778,16.114686 35.957421,19.734846c4.035663,4.490258 6.76965,7.141971 5.393613,9.286987c-0.973008,1.516751 -8.471568,3.461295 -17.978711,4.643493c-5.296276,0.658587 -25.210593,3.057102 -30.563808,3.48262c-7.357266,0.584813 -22.717953,8.548613 -34.159532,1.160873c-1.271293,-0.820865 -0.526578,-1.500882 -1.797871,-2.321747c-2.542567,-1.64173 -1.239183,-5.264479 1.797871,-6.96524c4.295042,-2.405248 8.989337,-3.48262 10.787208,-4.643493c1.797871,-1.160873 4.402842,-3.731674 1.797871,-9.286987c-1.87847,-4.006 -4.859034,-6.432829 -10.787208,-8.126113c-6.779125,-1.936348 -17.152589,-3.420513 -17.978711,-1.160873c-0.923638,2.526351 10.640358,4.773674 17.978711,8.126113c5.291764,2.417484 14.382951,8.126113 35.957403,22.056593c12.585097,8.126113 18.923905,16.425603 17.978711,17.4131c-4.227029,4.416229 -10.814158,3.198937 -14.382969,3.48262c-7.357266,0.584813 -8.989355,1.160873 -10.787226,1.160873c-1.797871,0 -5.393613,0 -8.989355,0c-12.585097,0 -15.136007,0.486232 -17.978693,2.321747c-2.842686,1.835515 -5.930619,2.114043 -8.989355,5.804367c-1.696687,2.047026 -8.35059,1.639153 -8.989355,5.804367c-0.250533,1.633732 3.595742,2.321747 5.393613,2.321747c7.191484,0 8.183837,-0.670044 3.595742,1.160873c-3.419749,1.364688 -7.573712,4.261821 -16.18084,8.126113c-9.451714,4.243491 -10.260648,4.983501 -8.989355,5.804367c2.542585,1.64173 5.920192,-0.820865 7.191484,0c1.271293,0.820865 0.336813,2.561815 -3.595742,4.643493c-10.026098,5.307234 -21.574453,6.96524 -28.765937,8.126113c0,0 0,1.160873 0,1.160873c1.797871,1.160873 5.0568,2.561815 8.989355,4.643493c10.026098,5.307223 17.425955,9.502921 19.776582,11.608733c1.486678,1.331847 2.350627,3.698554 0,5.804367c-1.48666,1.331847 -7.288803,1.66316 -12.585097,2.321747c-9.507124,1.182199 -12.585097,2.321747 -16.18084,2.321747c-12.585097,0 -15.654261,0.340031 -14.382969,1.160873c1.271293,0.820842 4.056896,-0.235657 5.393613,1.160873c2.988979,3.122749 7.142061,5.395147 8.989355,10.44786c0.413061,1.129808 -1.271293,3.822651 0,4.643493c1.271293,0.820842 5.393613,0 8.989355,0c1.797871,0 0,0 -1.797871,0c0,0 -2.109065,0.9899 -3.595742,2.321747c-2.350627,2.105813 -1.524145,2.594111 1.797871,3.48262c2.349044,0.628265 8.989355,1.160873 12.585097,2.321747c3.595742,1.160873 10.787226,2.321747 32.361679,4.643493c10.787226,1.160873 23.238904,2.899351 32.361661,3.48262c3.578249,0.228785 8.164492,-0.355866 7.191484,1.160873c-0.688027,1.072519 -3.595742,0 -5.393613,0c-7.191484,0 -10.787226,0 -16.18084,0c-3.595742,0 -14.382951,0 -10.787208,0c0,0 3.595742,0 7.191466,0c7.191484,0 14.833461,-1.286677 26.968066,1.160873c7.67459,1.547955 11.121648,3.125698 14.382969,4.643493c2.062644,0.959926 6.280791,4.502528 7.191484,8.126113c0.863967,3.437659 0.81057,6.913198 -5.393613,8.126113c-1.720724,0.336421 -3.34751,1.712822 -14.382969,3.48262c-10.613534,1.702131 -15.328145,1.33425 -14.382969,2.321747c2.113523,2.208097 6.826516,2.619511 8.989355,3.48262c4.836255,1.929963 6.397185,2.924577 12.585097,5.804367c3.261338,1.517795 6.640329,2.854355 8.989355,3.48262c3.322052,0.888509 1.797871,0 0,0c-1.797871,0 -6.513525,-0.848262 -14.382969,5.804367c-3.450978,2.917379 -14.909547,7.305271 -16.18084,8.126113c-1.271275,0.820842 1.202596,3.041732 7.191484,4.643493c8.469555,2.265235 20.197302,4.054872 28.765937,6.96524c5.737007,1.948596 8.989355,5.804367 8.989355,6.96524c0,0 1.507982,3.246115 -5.393613,6.96524c-6.172954,3.326494 -14.382969,6.96524 -19.776582,9.286987c-5.393613,2.321747 -12.585097,3.48262 -12.585097,5.804367c0,1.160873 0,1.160873 1.797871,1.160873c1.797871,0 3.278867,1.725371 7.191484,2.321747c3.499574,0.533421 27.38652,11.29907 37.755292,17.4131c5.632478,3.321212 3.595742,3.48262 3.595742,3.48262c-5.393613,1.160873 -7.191484,1.160873 -14.382969,1.160873c-5.393613,0 -12.585097,-1.160873 -16.18084,-1.160873c-3.595742,0 -5.393613,-1.160873 -5.393613,-1.160873c0,0 0.273708,-0.888509 3.595742,0c2.349044,0.628265 8.672481,2.886245 12.585097,3.48262c1.749778,0.266734 -1.797871,0 -5.393613,1.160873l-8.989355,1.160873l-8.989355,2.321747l-1.797871,0"/>
  <path stroke="#ff3f00" fill="none" stroke-width="31" id="svg_8" d="m13.495554,155.364502c-1.72333,0 -4.422945,-0.931906 -10.339983,2.153427c-6.615452,3.4495 -17.27189,8.561725 -39.636601,15.07399c-29.347663,8.545606 -32.743279,10.767136 -31.019948,10.767136c18.956635,0 37.880975,-0.538195 72.379879,-1.076714c20.67352,-0.322702 29.353022,0.036425 27.573287,1.076714c-13.377559,7.81946 -28.962378,15.379034 -41.359931,20.457558c-16.80697,6.884797 -30.229267,10.437058 -29.296618,11.843849c3.297455,4.973771 18.879533,-2.350929 46.529922,-6.460281c53.281638,-7.918615 76.997784,-10.739335 77.549871,-8.613708c0.872936,3.360897 -10.295193,4.353724 -27.573287,10.767136c-29.221412,10.846619 -87.21336,26.185502 -94.783175,36.608261c-1.424212,1.960975 0,2.153427 3.446661,2.153427c3.446661,0 17.131576,-0.424096 37.91327,-2.153427c17.167663,-1.428594 30.097053,-4.883477 36.18994,-1.076714c1.218584,0.761355 -1.049164,3.554716 -5.169991,6.460281c-21.074264,14.859293 -72.990093,28.647752 -72.379879,35.531548c0.134782,1.520373 8.298836,3.222022 22.403296,4.306854c6.841674,0.526233 19.061999,1.724098 55.146575,0c22.600893,-1.079868 32.743279,-1.076714 32.743279,-2.153427c0,-1.076714 -3.49662,-0.448031 -8.616652,0c-12.424765,1.087233 -28.507126,7.118143 -34.466609,12.920563c-3.837426,3.736293 0,4.306854 1.72333,4.306854c3.446661,0 10.233085,-0.536516 20.679965,-1.076714c1.717471,-0.088818 1.982381,1.251755 -1.72333,3.230141c-17.82015,9.513744 -58.872898,17.779933 -53.423244,27.994553c1.089938,2.042924 6.893322,1.076714 17.233305,1.076714c6.893322,0 37.91327,0 77.549871,0c13.786644,0 18.956635,1.076714 18.956635,2.153427c0,1.076714 -18.330721,11.07065 -37.91327,22.610985c-27.494566,16.20301 -43.385827,25.946536 -41.359931,27.994553c0.906007,0.915906 17.126872,1.621251 55.146575,-1.076714c37.826414,-2.684258 55.146575,-2.153427 55.146575,-2.153427c-5.169991,2.153427 -16.903063,9.939229 -29.296618,16.150703c-13.442701,6.737277 -19.747299,10.437069 -20.679965,11.843849c-0.659484,0.994765 1.72333,1.076714 1.72333,1.076714c10.339983,-3.230141 22.403296,-8.613708 27.573287,-9.690422c15.509974,-3.230141 23.335962,-2.900074 22.403296,-4.306854c-0.659484,-0.994765 -5.882778,0.67328 -12.063313,5.383568c-3.939327,3.002233 -14.435322,7.623477 -17.233305,11.843849c-1.318985,1.989497 -1.777529,3.673833 1.72333,7.536995c2.401564,2.650115 7.059796,3.804837 17.233305,5.383568c5.288953,0.820746 2.655997,1.823361 1.72333,3.230141c-0.659484,0.994765 -2.23516,3.89106 -6.893322,6.460281c-2.888871,1.593353 -9.338486,3.506415 -12.063313,8.613708c-1.08992,2.042924 7.264045,4.695311 18.956635,7.536995c7.182703,1.745622 7.106825,2.305857 5.169991,3.230141c-11.041602,5.269156 -36.18994,8.613708 -46.529922,9.690422c0,0 -1.740098,-0.212199 -5.169991,0c-8.744523,0.540984 -33.860876,-2.04315 -58.593236,-7.536995c-11.821134,-2.625868 -25.059207,-6.269606 -39.636601,-10.767136c-13.202193,-4.073229 -40.791852,-11.288179 -58.593236,-12.920563c-10.230379,-0.938119 -22.94892,3.741063 -51.699914,-8.613708c-15.093859,-6.486079 -18.184669,-23.695515 -17.233305,-46.298683c0.861975,-20.47878 7.673525,-47.519676 10.339983,-57.065819c7.872208,-28.183031 47.639988,-61.673754 77.549871,-85.060371c32.093738,-25.094145 51.448876,-37.228351 58.593236,-47.375397c4.388754,-6.233278 10.146005,-13.430171 6.893322,-17.227417c-2.931902,-3.422786 -11.208955,-3.268375 -18.956635,-6.460281c-2.034633,-0.838243 -4.75024,-3.307847 -3.446661,-7.536995c5.264999,-17.080984 28.578023,-35.829506 41.359931,-47.375397c14.70492,-13.282931 24.790281,-23.011544 29.296618,-26.917839c1.425039,-1.235281 -1.115856,-0.029599 -8.616652,1.076714c-6.708908,0.989511 -11.495217,2.674481 -29.296618,4.306854c-1.705063,0.15635 -1.276643,-1.46433 1.72333,-4.306854c11.423596,-10.824008 25.498863,-14.170886 31.019948,-18.304131c2.469119,-1.848437 -0.015924,-2.592543 -15.509974,-2.153427c-19.015246,0.538906 -29.296618,1.076714 -32.743279,1.076714c-3.446661,0 -7.683986,-1.82335 -8.616652,-3.230141c-0.659484,-0.994754 -4.125912,-3.251104 -3.446661,-7.536995c0.865887,-5.463471 5.169991,-8.613708 5.169991,-10.767136l0,0l-5.169991,0l-15.509974,4.306854"/>
 </g>
</svg>